<svg width="288" height="375" viewBox="0 0 288 375" fill="none" xmlns="http://www.w3.org/2000/svg">
<path d="M117.621 37.9514L117.259 37.2949L117.258 37.295L117.621 37.9514ZM11.9413 154.311L11.2409 154.043L11.2409 154.043L11.9413 154.311ZM11.6213 261.061L10.9386 261.372L11.6213 261.061ZM105.111 330.761L105.234 330.021L105.111 330.761ZM214.341 286.761L213.677 286.414L213.677 286.414L214.341 286.761ZM197.671 229.181L197.977 228.497L197.977 228.497L197.671 229.181ZM135.781 247.891L136.409 248.302L136.409 248.301L135.781 247.891ZM136.041 306.531L135.368 306.863L135.368 306.863L136.041 306.531ZM226.75 336C226.75 335.586 226.414 335.25 226 335.25C225.586 335.25 225.25 335.586 225.25 336H226.75ZM244.015 364.503L244.472 363.908L244.015 364.503ZM211.629 373.43C211.305 373.688 211.253 374.16 211.511 374.484C211.77 374.808 212.242 374.86 212.565 374.602L211.629 373.43ZM287.995 1.05332C228.348 -3.23654 167.082 9.7711 117.259 37.2949L117.984 38.6079C167.54 11.2317 228.515 -1.72068 287.887 2.54946L287.995 1.05332ZM117.258 37.295C67.4342 64.8292 29.3821 106.717 11.2409 154.043L12.6416 154.58C30.6404 107.625 68.4283 65.9936 117.984 38.6078L117.258 37.295ZM11.2409 154.043C-2.05035 188.737 -4.60575 227.213 10.9386 261.372L12.3039 260.751C-3.03173 227.05 -0.547141 189.006 12.6416 154.58L11.2409 154.043ZM10.9386 261.372C26.4825 295.53 61.8032 324.361 104.989 331.501L105.234 330.021C62.5393 322.962 27.64 294.452 12.3039 260.751L10.9386 261.372ZM104.989 331.501C120.826 334.12 137.459 333.369 153.039 329.722L152.697 328.261C137.297 331.866 120.864 332.606 105.234 330.021L104.989 331.501ZM153.039 329.722C179.956 323.421 203.848 308.443 215.006 287.109L213.677 286.414C202.786 307.238 179.347 322.023 152.697 328.261L153.039 329.722ZM215.006 287.109C225.549 266.955 221.553 239.027 197.977 228.497L197.365 229.866C219.909 239.936 223.954 266.768 213.677 286.414L215.006 287.109ZM197.977 228.497C187.031 223.61 174.262 223.865 162.791 227.563C151.323 231.26 141.065 238.426 135.153 247.481L136.409 248.301C142.098 239.587 152.044 232.603 163.251 228.99C174.455 225.378 186.831 225.163 197.365 229.866L197.977 228.497ZM135.153 247.481C123.343 265.558 126.095 288.023 135.368 306.863L136.714 306.2C127.568 287.62 125 265.765 136.409 248.302L135.153 247.481ZM135.368 306.863C139.835 315.932 145.57 323.356 152.363 329.546L153.373 328.437C146.717 322.371 141.096 315.097 136.714 306.2L135.368 306.863ZM152.363 329.546C163.302 339.515 176.957 346.26 192.404 351.537C207.846 356.812 225.131 360.636 243.335 364.732L243.665 363.268C225.436 359.167 208.238 355.361 192.889 350.117C177.546 344.876 164.102 338.215 153.373 328.437L152.363 329.546ZM225.25 336C225.25 343.526 229.744 350.704 234.196 355.989C238.67 361.3 243.221 364.838 243.558 365.097L244.472 363.908C244.175 363.68 239.719 360.217 235.343 355.023C230.947 349.804 226.75 342.974 226.75 336H225.25ZM243.558 365.097C243.518 365.067 243.358 364.939 243.304 364.69C243.236 364.38 243.382 364.145 243.488 364.035C243.578 363.943 243.666 363.904 243.682 363.897C243.709 363.885 243.723 363.881 243.715 363.884C243.668 363.897 243.535 363.921 243.272 363.952C242.77 364.01 241.996 364.072 240.971 364.162C238.939 364.339 236.017 364.62 232.692 365.181C226.067 366.3 217.733 368.551 211.629 373.43L212.565 374.602C218.364 369.967 226.386 367.767 232.942 366.66C236.208 366.109 239.083 365.833 241.102 365.656C242.101 365.568 242.916 365.503 243.446 365.442C243.7 365.412 243.944 365.377 244.121 365.328C244.168 365.314 244.229 365.295 244.293 365.267C244.345 365.243 244.46 365.188 244.566 365.079C244.689 364.952 244.841 364.699 244.769 364.371C244.711 364.105 244.536 363.958 244.472 363.908L243.558 365.097Z" fill="#231F20"/>
</svg>

