<svg width="22" height="21" viewBox="0 0 22 21" fill="none" xmlns="http://www.w3.org/2000/svg">
<path id="grid_3x3" d="M13.687 19.627L13.927 19.8732L14.1731 19.6332L15.7175 18.1278L15.9637 17.8878L15.7237 17.6416L12.9528 14.799L15.5492 12.2681L18.3201 15.1107L18.5601 15.3568L18.8063 15.1169L20.3506 13.6114L20.5968 13.3714L20.3568 13.1253L17.5859 10.2827L20.4285 7.51175L20.6746 7.27178L20.4347 7.0256L18.9292 5.48123L18.6892 5.23505L18.4431 5.47502L15.6005 8.24596L13.0695 5.64956L15.9121 2.87863L16.1583 2.63866L15.9183 2.39248L14.4129 0.848105L14.1729 0.601928L13.9267 0.841901L11.0841 3.61284L8.3132 0.770268L8.07322 0.524091L7.82705 0.764064L6.28267 2.26952L6.0365 2.50949L6.27647 2.75567L9.0474 5.59824L6.45101 8.1292L3.68008 5.28663L3.4401 5.04045L3.19393 5.28043L1.64955 6.78588L1.40338 7.02586L1.64335 7.27203L4.41429 10.1146L1.57172 12.8855L1.32554 13.1255L1.56551 13.3717L3.07097 14.9161L3.31094 15.1622L3.55712 14.9223L6.39969 12.1513L8.93065 14.7477L6.08808 17.5187L5.8419 17.7586L6.08188 18.0048L7.58733 19.5492L7.8273 19.7954L8.07348 19.5554L10.9161 16.7844L13.687 19.627ZM11.0328 7.63497L13.5638 10.2314L10.9674 12.7623L8.43641 10.1659L11.0328 7.63497Z" fill="black" stroke="black" stroke-width="0.687578"/>
</svg>
