<svg width="26" height="25" viewBox="0 0 26 25" fill="none" xmlns="http://www.w3.org/2000/svg">
<g id="Frame 50">
<g id="question_mark">
<mask id="mask0_693_1077" style="mask-type:alpha" maskUnits="userSpaceOnUse" x="-1" y="-2" width="24" height="28">
<rect id="Bounding box" x="0.456973" y="-0.947324" width="21.6587" height="25.5263" fill="#D9D9D9" stroke="#F4C661" stroke-width="1.03137"/>
</mask>
<g mask="url(#mask0_693_1077)">
<path id="question_mark_2" d="M11.1016 13.527V14.0427H11.6172H14.5039H15.0196V13.527C15.0196 12.7041 15.1111 12.2238 15.2271 11.9959C15.2786 11.8947 15.4024 11.7276 15.6395 11.4877C15.8701 11.2543 16.1836 10.9761 16.5851 10.6518L16.5851 10.6518L16.5889 10.6486C17.3747 10.0013 17.9774 9.40164 18.374 8.85006C18.8057 8.24985 19.0108 7.53821 19.0108 6.74165C19.0108 5.42328 18.4627 4.29593 17.4157 3.38305C16.3447 2.44917 14.855 2.01947 13.0229 2.01947C11.5197 2.01947 10.2291 2.37029 9.18597 3.10753C8.18187 3.81719 7.46478 4.67532 7.07029 5.68776L6.87808 6.18103L7.37622 6.36023L9.96169 7.29031L10.4269 7.45765L10.6137 6.99996C10.7651 6.62904 11.0325 6.24163 11.4395 5.84073C11.7552 5.52968 12.2536 5.33376 13.0229 5.33376C13.7675 5.33376 14.2762 5.50643 14.6146 5.78624C14.9609 6.07255 15.1178 6.40801 15.1178 6.82621C15.1178 7.16031 14.998 7.46126 14.7224 7.74728C14.3912 8.09107 13.8941 8.51194 13.2184 9.01156L13.2184 9.01154L13.2149 9.01416C12.4061 9.62279 11.8134 10.2287 11.5172 10.8394C11.2204 11.4513 11.1016 12.3729 11.1016 13.527ZM11.5988 21.9917L11.931 21.5972L11.5988 21.9917C12.0922 22.4072 12.6852 22.6097 13.3492 22.6097C14.0133 22.6097 14.6063 22.4072 15.0997 21.9917L14.7675 21.5972L15.0997 21.9917C15.5954 21.5742 15.8731 21.0373 15.8731 20.4029C15.8731 19.7685 15.5954 19.2317 15.0997 18.8142C14.6063 18.3987 14.0133 18.1962 13.3492 18.1962C12.6852 18.1962 12.0922 18.3987 11.5988 18.8142C11.1031 19.2317 10.8254 19.7685 10.8254 20.4029C10.8254 21.0373 11.1031 21.5742 11.5988 21.9917Z" fill="black" stroke="black" stroke-width="1.03137"/>
</g>
</g>
</g>
</svg>
