<svg width="28" height="25" viewBox="0 0 28 25" fill="none" xmlns="http://www.w3.org/2000/svg">
<g id="Frame 49">
<path id="Vector" d="M6.8102 15.3633L10.6168 15.4711C10.8065 15.4763 10.9588 15.3202 10.9489 15.1307L10.785 11.2339C10.7738 10.9382 11.1259 10.7822 11.3357 10.987L19.8288 19.2751C19.9567 19.3999 20.164 19.3974 20.2889 19.2695L22.9259 16.5672C23.0508 16.4393 23.0482 16.232 22.9203 16.1071L14.4144 7.80653C14.2046 7.60176 14.3495 7.24855 14.6402 7.24752L18.4959 7.23836C18.6755 7.23869 18.8228 7.08772 18.8181 6.90826L18.775 3.38416C18.7729 3.2072 18.6295 3.0623 18.4475 3.06452L6.65472 3.04673C6.47519 3.04639 6.3253 3.19487 6.33008 3.37939L6.49526 15.041C6.49992 15.2154 6.63567 15.3579 6.81269 15.3608L6.8102 15.3633Z" fill="black"/>
</g>
</svg>
